<?xml version="1.0" encoding="UTF-8" standalone="no"?>
<!-- Created with Inkscape (http://www.inkscape.org/) -->

<svg
   version="1.1"
   id="svg1"
   width="1382.8073"
   height="1404.5803"
   viewBox="0 0 1382.8072 1404.5803"
   sodipodi:docname="raden.svg"
   inkscape:export-filename="g1.svg"
   inkscape:export-xdpi="96"
   inkscape:export-ydpi="96"
   xmlns:inkscape="http://www.inkscape.org/namespaces/inkscape"
   xmlns:sodipodi="http://sodipodi.sourceforge.net/DTD/sodipodi-0.dtd"
   xmlns="http://www.w3.org/2000/svg"
   xmlns:svg="http://www.w3.org/2000/svg">
  <sodipodi:namedview
     id="namedview1"
     pagecolor="#ffffff"
     bordercolor="#000000"
     borderopacity="0.25"
     inkscape:showpageshadow="2"
     inkscape:pageopacity="0.0"
     inkscape:pagecheckerboard="0"
     inkscape:deskcolor="#d1d1d1"
     inkscape:export-bgcolor="#0c0c0c00" />
  <defs
     id="defs1" />
  <g
     id="g1"
     transform="matrix(0.96852298,0,0,0.92024927,90.270285,175.23222)"
     inkscape:export-filename="g1.svg"
     inkscape:export-xdpi="96"
     inkscape:export-ydpi="96">
    <rect
       style="display:inline;opacity:1;fill:#ffffff;stroke-width:3.98839"
       id="rect2"
       width="1427.7487"
       height="1526.3042"
       x="-93.204071"
       y="-1335.886"
       transform="scale(1,-1)"
       inkscape:export-filename="g1.svg"
       inkscape:export-xdpi="96"
       inkscape:export-ydpi="96" />
    <path
       style="display:inline;fill:#000000;stroke-width:1.2461"
       d="m 433.47885,1299.7144 c -9.22334,-0.6283 -11.73747,-1.2232 -13.33412,-3.1542 -3.3114,-4.005 -2.49217,-7.2915 2.52176,-10.1173 2.51488,-1.4172 20.94863,-18.1941 40.9639,-37.2819 20.01529,-19.0878 41.82991,-38.7211 48.47694,-43.6295 16.78123,-12.3919 28.87647,-22.3383 31.65337,-26.0296 1.99608,-2.6535 2.22677,-4.6455 1.5329,-13.2378 -0.44924,-5.5628 -1.68246,-13.8625 -2.74051,-18.4437 -1.05804,-4.5813 -2.44115,-10.7392 -3.07364,-13.6841 -0.63247,-2.9451 -2.881,-12.8511 -4.99675,-22.0136 -2.11577,-9.1622 -4.18824,-18.8005 -4.60548,-21.4185 -0.41724,-2.6178 -1.99214,-9.8465 -3.49974,-16.0638 -1.50764,-6.2174 -3.61699,-15.0524 -4.68745,-19.6337 -3.64113,-15.5827 -12.76183,-33.8286 -16.94133,-33.8913 -0.78591,-0.012 -2.54758,-1.1564 -3.91484,-2.5436 -3.23885,-3.2866 -15.70712,-10.5669 -18.0965,-10.5669 -1.02196,0 -2.63992,-1.0177 -3.59545,-2.2617 -2.85172,-3.7125 -11.47167,-7.68369 -18.53857,-8.54064 -6.83418,-0.82871 -19.02535,0.74756 -49.68651,6.42424 -13.89288,2.5722 -53.43602,13.7135 -63.94218,18.0158 -16.48122,6.7492 -39.20753,8.6577 -50.01154,4.1997 -12.04788,-4.9709 -21.84461,-9.9647 -26.62478,-13.5717 -2.67548,-2.0189 -6.91132,-5.1788 -9.41297,-7.022 -5.73948,-4.2289 -18.13172,-20.27554 -23.03085,-29.82245 -6.68857,-13.03398 -9.32608,-24.77338 -8.45356,-37.62638 0.6708,-9.88101 3.42214,-26.44181 7.31453,-44.02701 l 1.18523,-5.35462 -6.07081,-4.75967 c -3.33896,-2.61783 -8.95673,-8.77566 -12.48395,-13.68408 l -6.41311,-8.92438 0.47255,-11.96809 c 0.42081,-10.65843 0.94339,-12.84023 4.77546,-19.93813 3.81814,-7.07215 4.08316,-8.17041 2.35229,-9.74874 -5.18873,-4.73136 -6.0834,-30.37546 -1.41118,-40.44943 2.58325,-5.56979 4.62144,-18.76273 3.61064,-23.37113 -0.46026,-2.09851 -1.77888,-3.45507 -3.81046,-3.92001 -1.70862,-0.39103 -6.78296,-2.2481 -11.27627,-4.1268 -4.49331,-1.87869 -10.51859,-4.36005 -13.38948,-5.51417 -7.90089,-3.17622 -19.09794,-10.42697 -24.46097,-15.83996 -2.63604,-2.66061 -7.1659,-9.25216 -10.06629,-14.64786 -5.05543,-9.40479 -5.27345,-10.28588 -5.27345,-21.31062 0,-18.09906 4.68934,-26.76745 24.73889,-45.73028 6.91963,-6.54455 13.97895,-13.7733 15.68744,-16.06389 1.70846,-2.29061 8.16289,-8.98388 14.34315,-14.87399 12.72323,-12.12591 18.15558,-20.02057 22.90476,-33.28684 1.81153,-5.06042 6.50961,-15.6871 10.44014,-23.61487 3.93051,-7.92779 7.14641,-15.33717 7.14641,-16.46531 0,-1.12813 -3.00441,-4.35878 -6.67642,-7.17914 -3.67201,-2.82041 -10.20621,-9.12657 -14.52043,-14.01372 l -7.844,-8.88574 0.73691,-17.88743 c 0.40531,-9.8381 1.10357,-19.76158 1.55172,-22.05216 2.12525,-10.86262 7.41158,-33.39913 9.21077,-39.26734 1.10364,-3.59947 2.83973,-9.3128 3.85797,-12.69622 1.01823,-3.38342 6.81989,-15.69909 12.8926,-27.36814 l 11.04123,-21.21644 -4.87967,-4.75967 c -17.54976,-17.11824 -33.82488,-48.65921 -38.91962,-75.4259 -4.50415,-23.66368 -2.06891,-76.05808 4.40308,-94.73249 8.87305,-25.60245 9.54267,-26.57356 33.18116,-48.12016 20.38039,-18.57689 32.17159,-26.99939 50.1198,-35.80085 5.74176,-2.81565 12.49483,-6.28073 15.00686,-7.70019 2.51198,-1.41945 18.95426,-9.033022 36.53837,-16.919061 29.15927,-13.077215 39.95594,-17.007522 69.16193,-25.176943 4.66518,-1.304926 18.66456,-5.61691 31.10976,-9.582207 36.4231,-11.605136 63.36639,-18.229669 80.46282,-19.78334 5.02402,-0.456572 10.68952,-1.551516 12.58995,-2.433218 5.35576,-2.484757 13.12261,-3.762149 35.04042,-5.762955 25.85133,-2.359911 73.9583,-2.435183 94.00544,-0.147113 20.72999,2.366008 44.92204,7.225399 49.92263,10.027852 2.30059,1.289324 6.53181,2.720397 9.40269,3.180164 12.29743,1.969461 27.82906,5.542464 33.27602,7.65506 3.22972,1.252666 15.26781,5.642513 26.75132,9.755219 14.76082,5.286476 22.08082,8.570545 24.98016,11.20722 3.6803,3.346832 32.58244,19.533045 34.87829,19.533045 0.51231,0 1.64076,0.553618 2.50761,1.230295 0.86684,0.676665 9.50363,5.983946 19.19282,11.793946 21.67527,12.997306 25.36305,15.861006 51.77613,40.206276 19.94517,18.38358 21.44717,20.09472 27.21689,31.00765 3.35888,6.35264 6.55195,12.62122 7.09558,13.93012 0.54373,1.30892 3.96524,8.26995 7.6032,15.46897 3.63808,7.19899 6.9611,14.69548 7.3844,16.65884 l 0.76956,3.56977 20.75898,-0.37822 20.7588,-0.37826 13.4428,4.94198 c 14.6099,5.37121 21.9764,9.76957 31.21,18.63428 11.8269,11.35471 17.4492,19.64198 23.8574,35.16666 4.3405,10.51525 5.161,17.73647 3.53,31.0729 -1.6687,13.64764 -4.2646,20.34753 -12.6202,32.57169 -3.425,5.01106 -5.6359,9.29088 -4.9126,9.51073 0.7233,0.2198 4.4839,2.26132 8.3572,4.53668 3.8732,2.27535 7.489,4.137 8.0352,4.137 2.3243,0 20.5913,21.66463 21.8057,25.86165 4.6846,16.18655 5.6714,24.93376 4.3525,38.5826 -1.5486,16.03199 0.024,34.85083 3.5151,42.11117 2.8791,5.9841 13.8282,14.6525 24.229,19.18261 6.3468,2.76441 7.9064,4.01072 8.2338,6.58142 0.5765,4.51671 -3.5232,6.25187 -12.0305,5.09201 -3.6536,-0.49816 -8.6982,-0.84817 -11.2103,-0.77778 -2.5119,0.0702 -8.3841,-1.16444 -13.0494,-2.74405 -7.0568,-2.38933 -17.2079,-5.24546 -30.3398,-8.53626 -3.3416,-0.83742 -2.8675,1.51911 2.2745,11.3029 8.4009,15.98488 23.0735,30.35611 36.4998,35.7504 3.5622,1.43126 7.5263,3.46802 8.8084,4.52612 2.6632,2.19787 3.0864,7.53005 0.7654,9.64648 -2.5243,2.30178 -13.8524,1.64953 -26.5735,-1.53007 -14.4662,-3.61574 -40.4266,-7.75138 -48.6557,-7.75111 -5.9508,2.1e-4 -20.4831,2.20075 -32.0055,4.84641 -6.2917,1.44462 -6.521,1.80234 -7.9581,12.40723 -1.7775,13.117 -7.0891,43.20495 -11.974,67.82537 -1.1683,5.89007 -5.0219,18.47347 -8.563,27.96308 -6.7377,18.05546 -20.99079,60.79892 -26.3862,79.1296 -1.73367,5.8901 -4.3978,14.67189 -5.92028,19.51508 -1.52226,4.84321 -4.76761,17.15886 -7.21165,27.36813 -7.34562,30.68277 -14.90406,58.7889 -16.86939,62.72851 -2.09539,4.20044 -10.61403,46.65353 -11.92377,59.42329 -0.96709,9.42886 0.61462,22.98308 5.54609,47.5302 4.49584,22.3771 7.30102,28.39632 20.6397,44.28574 2.86614,3.41458 7.26691,8.92239 9.7788,12.23954 2.51195,3.3172 11.90757,12.0165 20.87907,19.3319 8.9715,7.3154 21.78023,18.2937 28.46423,24.3961 15.0181,13.7126 15.2966,15.3911 3.5066,21.1509 -4.306,2.1039 -10.6975,6.1441 -14.2029,8.9783 -3.5053,2.8343 -11.82164,8.4747 -18.48026,12.5345 -6.65893,4.0597 -13.77371,8.4431 -15.81074,9.741 -2.03694,1.2977 -7.08,4.2938 -11.20686,6.6578 -4.12698,2.3639 -10.72732,6.1972 -14.66785,8.5186 -3.94038,2.3213 -9.21129,5.0003 -11.71312,5.9536 -5.58035,2.1261 -30.70354,14.5712 -43.10733,21.354 -5.02401,2.7474 -17.64932,9.4067 -28.05625,14.7987 -10.40691,5.3918 -24.19814,12.7669 -30.64712,16.3886 -6.44898,3.6218 -17.89988,9.5305 -25.44637,13.1306 -15.33609,7.3158 -27.74021,13.8843 -32.6426,17.2852 -6.5711,4.5586 -17.90093,10.858 -29.36119,16.3248 -6.45946,3.0813 -13.79977,6.7534 -16.31176,8.1601 -2.51202,1.4068 -9.2651,3.9732 -15.00685,5.7033 -5.74175,1.73 -20.12874,7.0128 -31.97108,11.7392 -11.84237,4.7263 -27.4038,10.5828 -34.58099,13.0141 -7.17716,2.4315 -18.01785,6.5393 -24.09039,9.1289 -36.48972,15.5603 -75.62901,26.0936 -112.27609,30.2164 -8.97147,1.0095 -18.66066,2.3555 -21.53152,2.9909 -6.77296,1.4996 -42.44015,2.3422 -57.03948,1.3473 z"
       id="path2" />
  </g>
</svg>
