<?xml version="1.0" encoding="UTF-8" standalone="no"?>
<!-- Created with Inkscape (http://www.inkscape.org/) -->

<svg
   width="1484.9595"
   height="1448.3123"
   viewBox="0 0 392.89552 383.19928"
   version="1.1"
   id="svg1"
   inkscape:export-filename="raden.svg"
   inkscape:export-xdpi="1"
   inkscape:export-ydpi="1"
   xmlns:inkscape="http://www.inkscape.org/namespaces/inkscape"
   xmlns:sodipodi="http://sodipodi.sourceforge.net/DTD/sodipodi-0.dtd"
   xmlns:xlink="http://www.w3.org/1999/xlink"
   xmlns="http://www.w3.org/2000/svg"
   xmlns:svg="http://www.w3.org/2000/svg">
  <sodipodi:namedview
     id="namedview1"
     pagecolor="#ffffff"
     bordercolor="#000000"
     borderopacity="0"
     inkscape:showpageshadow="2"
     inkscape:pageopacity="0.0"
     inkscape:pagecheckerboard="0"
     inkscape:deskcolor="#d1d1d1"
     inkscape:document-units="mm"
     showguides="true"
     inkscape:export-bgcolor="#ffffffff" />
  <defs
     id="defs1">
    <color-profile
       name="DX263"
       xlink:href=".local/share/icc/edid-ea9e3e3161797be72fd53d246600507b.icc"
       id="color-profile2" />
  </defs>
  <g
     inkscape:label="Layer 1"
     inkscape:groupmode="layer"
     id="layer1"
     style="display:inline;fill:none"
     transform="translate(13.871431,6.1989546)">
    <rect
       style="display:inline;fill:#ffffff;stroke-width:0.302853"
       id="rect2-6"
       width="392.89551"
       height="383.19931"
       x="-13.871431"
       y="-6.1989546"
       inkscape:export-filename="g1.svg"
       inkscape:export-xdpi="96"
       inkscape:export-ydpi="96" />
    <path
       style="display:inline;fill:#000000;stroke-width:0.309674"
       d="m 139.54068,348.88278 c -2.19682,-0.16293 -2.79563,-0.31719 -3.17592,-0.81788 -0.78871,-1.03852 -0.59359,-1.89069 0.60064,-2.62343 0.59899,-0.3675 4.98953,-4.7177 9.75676,-9.66721 4.76724,-4.94948 9.96304,-10.04041 11.54623,-11.31313 3.99694,-3.21321 6.87778,-5.79234 7.53919,-6.74947 0.47542,-0.6881 0.53037,-1.20462 0.3651,-3.4326 -0.107,-1.4424 -0.40073,-3.59455 -0.65273,-4.78245 -0.25201,-1.18793 -0.58144,-2.78463 -0.73208,-3.5483 -0.15064,-0.76361 -0.6862,-3.33227 -1.19012,-5.70812 -0.50394,-2.37577 -0.99756,-4.875 -1.09693,-5.55382 -0.0994,-0.67876 -0.47449,-2.5532 -0.83357,-4.16533 -0.35909,-1.61219 -0.8615,-3.9031 -1.11646,-5.09103 -0.86724,-4.04058 -3.03961,-8.77178 -4.03508,-8.788 -0.18719,-0.003 -0.60678,-0.29988 -0.93243,-0.65958 -0.77143,-0.85222 -3.74112,-2.74 -4.31023,-2.74 -0.2434,0 -0.62877,-0.26387 -0.85636,-0.58645 -0.67922,-0.96266 -2.73232,-1.99239 -4.41551,-2.21459 -1.62776,-0.21489 -4.53145,0.19386 -11.83432,1.66582 -3.309,0.66699 -12.72737,3.55592 -15.22972,4.67151 -3.9255,1.75006 -9.33844,2.24491 -11.91174,1.08897 -2.86956,-1.28897 -5.20294,-2.58387 -6.34148,-3.51914 -0.63725,-0.52351 -1.64613,-1.34287 -2.241975,-1.82084 -1.367025,-1.09654 -4.318605,-5.25746 -5.485481,-7.73296 -1.59308,-3.37973 -2.221281,-6.42375 -2.013464,-9.75654 0.159769,-2.56214 0.815084,-6.85636 1.742173,-11.41621 l 0.282297,-1.38845 -1.445942,-1.23419 c -0.795274,-0.6788 -2.133312,-2.27553 -2.973422,-3.54828 l -1.527474,-2.3141 0.112551,-3.10333 c 0.100229,-2.76373 0.224697,-3.32947 1.137417,-5.16996 0.909405,-1.83381 0.972527,-2.11859 0.560269,-2.52785 -1.235853,-1.22684 -1.448943,-7.87637 -0.336114,-10.48855 0.615276,-1.44426 1.100733,-4.86519 0.859981,-6.06015 -0.109625,-0.54414 -0.423696,-0.8959 -0.907574,-1.01646 -0.406961,-0.10139 -1.615564,-0.58293 -2.68578,-1.07008 -1.070216,-0.48714 -2.505316,-1.13056 -3.189102,-1.42982 -1.881831,-0.82359 -4.548741,-2.70372 -5.826107,-4.10731 -0.627851,-0.68989 -1.706771,-2.39908 -2.397585,-3.79819 -1.2041,-2.43867 -1.256027,-2.66713 -1.256027,-5.52585 0,-4.69309 1.116904,-6.94081 5.892302,-11.85787 1.648111,-1.697 3.329501,-3.57142 3.736427,-4.16537 0.406922,-0.59396 1.944235,-2.32953 3.416247,-3.85683 3.030414,-3.14425 4.32429,-5.19134 5.455447,-8.63129 0.431469,-1.31217 1.550461,-4.06767 2.486631,-6.12334 0.936167,-2.05568 1.70213,-3.97693 1.70213,-4.26946 0,-0.29252 -0.715589,-1.13023 -1.590188,-1.86155 -0.874601,-0.73133 -2.430912,-2.36652 -3.458472,-3.63376 l -1.868281,-2.30407 0.175519,-4.63822 c 0.09654,-2.55102 0.262845,-5.12418 0.369586,-5.71813 0.506193,-2.81668 1.765287,-8.6604 2.193819,-10.18203 0.262867,-0.93334 0.676365,-2.41481 0.918888,-3.29213 0.242525,-0.87733 1.624359,-4.07078 3.070757,-7.09656 l 2.629796,-5.50144 -1.162237,-1.23418 c -4.179996,-4.43877 -8.056401,-12.617347 -9.269865,-19.557957 -1.072796,-6.136 -0.492771,-19.72188 1.048729,-24.56416 2.113378,-6.63872 2.272866,-6.89053 7.903075,-12.47757 4.854189,-4.81699 7.662619,-7.00095 11.937509,-9.28317 1.36757,-0.7301 2.97602,-1.62859 3.57433,-1.99666 0.59831,-0.36806 4.51452,-2.34227 8.7027,-4.38712 6.94515,-3.39092 9.51669,-4.41005 16.47297,-6.52839 1.11115,-0.33836 4.44552,-1.45646 7.40971,-2.48466 8.67525,-3.00922 15.09259,-4.72696 19.16461,-5.12983 1.19662,-0.11839 2.54603,-0.40231 2.99867,-0.63093 1.27563,-0.6443 3.12554,-0.97553 8.34592,-1.49434 6.15726,-0.61192 17.61536,-0.63144 22.39019,-0.0382 4.93746,0.61351 10.69951,1.87355 11.89055,2.60023 0.54795,0.33432 1.55574,0.7054 2.23953,0.82461 2.92899,0.51069 6.62832,1.43717 7.92567,1.98496 0.76925,0.32482 3.63649,1.46311 6.37162,2.52953 3.51573,1.37079 5.2592,2.22235 5.94976,2.90604 0.87659,0.86783 7.76049,5.06492 8.30731,5.06492 0.12202,0 0.39079,0.14356 0.59727,0.31902 0.20645,0.17546 2.26356,1.55164 4.57134,3.05817 5.1626,3.37021 6.04096,4.11277 12.33201,10.4255 4.75055,4.76687 5.10829,5.21056 6.48251,8.04029 0.80002,1.64724 1.56054,3.27268 1.69002,3.61208 0.12952,0.33941 0.94443,2.1444 1.81094,4.01111 0.86651,1.8667 1.65799,3.81054 1.7588,4.31964 l 0.1833,0.92564 4.94437,-0.0981 4.94432,-0.0981 3.20178,1.28146 c 3.4798,1.39275 5.23436,2.53325 7.4336,4.83187 2.81697,2.94428 4.15607,5.09317 5.68235,9.11873 1.03383,2.7266 1.22925,4.59907 0.84079,8.05721 -0.39745,3.53884 -1.01576,5.27611 -3.00588,8.445837 -0.81576,1.29937 -1.34236,2.40913 -1.17009,2.46615 0.17227,0.057 1.06797,0.58636 1.99051,1.17636 0.9225,0.59 1.78375,1.07273 1.91384,1.07273 0.55359,0 4.90442,5.61763 5.19367,6.70592 1.11577,4.19718 1.3508,6.46534 1.03669,10.00449 -0.36889,4.1571 0.006,9.03682 0.83722,10.91943 0.68574,1.55168 3.29358,3.7994 5.77085,4.97405 1.51167,0.71682 1.88312,1.03999 1.96112,1.70657 0.13729,1.17118 -0.83915,1.62111 -2.86544,1.32035 -0.87019,-0.12916 -2.07171,-0.21992 -2.67004,-0.20167 -0.5983,0.0182 -1.99692,-0.30194 -3.10811,-0.71153 -1.6808,-0.61956 -4.09859,-1.36015 -7.22633,-2.21346 -0.79589,-0.21714 -0.68297,0.39391 0.54173,2.93085 2.00094,4.14488 5.49564,7.87134 8.69352,9.27009 0.84847,0.37112 1.79261,0.89925 2.09799,1.17362 0.63431,0.5699 0.73509,1.95254 0.1823,2.50133 -0.60124,0.59685 -3.29936,0.42772 -6.32926,-0.39675 -3.44556,-0.93756 -9.62879,-2.00993 -11.5888,-2.00986 -1.41735,5e-5 -4.87865,0.57065 -7.62304,1.25667 -1.49858,0.37459 -1.55319,0.46735 -1.89548,3.2172 -0.42336,3.40124 -1.68846,11.20306 -2.85197,17.58713 -0.27828,1.5273 -1.1961,4.79018 -2.03954,7.25084 -1.60477,4.68179 -4.99956,15.76518 -6.28464,20.51832 -0.41294,1.52731 -1.04746,3.80443 -1.4101,5.06027 -0.36256,1.25584 -1.13554,4.4493 -1.71768,7.09656 -1.74955,7.95606 -3.54983,15.24399 -4.01793,16.26553 -0.49909,1.08918 -2.52804,12.09727 -2.84001,15.40847 -0.23032,2.44491 0.14639,5.95952 1.32098,12.3246 1.07082,5.80239 1.73895,7.36317 4.91596,11.48329 0.68265,0.88541 1.73083,2.31358 2.3291,3.17374 0.5983,0.86014 2.83615,3.11587 4.97298,5.01275 2.13683,1.89693 5.1876,4.74358 6.7796,6.32595 3.57701,3.55562 3.64331,3.99086 0.83521,5.48441 -1.02561,0.54554 -2.54794,1.59315 -3.38286,2.32809 -0.83489,0.73493 -2.81566,2.19747 -4.40163,3.25017 -1.58602,1.05269 -3.2806,2.18929 -3.76579,2.52584 -0.48516,0.33652 -1.68632,1.11337 -2.66925,1.72638 -0.98295,0.61296 -2.55503,1.60695 -3.49358,2.20885 -0.93851,0.60193 -2.19393,1.29662 -2.78982,1.54376 -1.32914,0.55134 -7.31295,3.77836 -10.26729,5.53712 -1.19663,0.71239 -4.2037,2.4392 -6.68242,3.83728 -2.47872,1.39814 -5.76353,3.31049 -7.29954,4.24963 -1.53601,0.93906 -4.26339,2.47121 -6.06081,3.40471 -3.65273,1.89701 -6.60714,3.60024 -7.77479,4.4821 -1.56511,1.18205 -4.26364,2.81546 -6.99324,4.23301 -1.53851,0.79902 -3.28683,1.75118 -3.88513,2.1159 -0.59831,0.36481 -2.20676,1.03027 -3.57433,1.47889 -1.36757,0.4486 -4.79426,1.81843 -7.61486,3.04398 -2.82061,1.22555 -6.52703,2.74413 -8.23649,3.37455 -1.70945,0.63048 -4.29149,1.69563 -5.73784,2.36712 -8.69111,4.03479 -18.01329,6.76606 -26.74188,7.83516 -2.13683,0.26173 -4.4446,0.61074 -5.12837,0.77552 -1.61319,0.38883 -10.10839,0.6073 -13.58565,0.34936 z"
       id="path2-2"
       sodipodi:nodetypes="sssssssssssssssssssssssssscsscssssssssssssssssssscssssscsssssssssssssssssssssssssscccsssssssssscscssssssssssssssssssssssscsssssssssssssssssssss" />
  </g>
</svg>
